<svg xmlns="http://www.w3.org/2000/svg" width="100" height="100" viewBox="0 0 26.458 26.458"><g transform="translate(453.478 -1043.616) scale(3.78755)"><circle class="cls-1" cx="-116.229" cy="279.058" r="3.445" fill="#5c2d91"/><path class="cls-2" d="M-118.617 276.582a3.445 3.445 0 1 0 4.864 4.863z" opacity=".1" fill="#fff"/><path d="M-118.877 280.053a.145.145 0 0 1-.108-.045.149.149 0 0 1-.044-.107.15.15 0 0 1 .044-.108.144.144 0 0 1 .108-.046.147.147 0 0 1 .107.046.15.15 0 0 1 .046.108.147.147 0 0 1-.046.107.149.149 0 0 1-.107.045zm2.139-.026h-.282l-1.009-1.566a.652.652 0 0 1-.062-.122h-.009a2.014 2.014 0 0 1 .01.269v1.419h-.229v-1.963h.299l.981 1.537q.062.096.08.132h.005a2.077 2.077 0 0 1-.014-.289v-1.38h.23zm1.552 0h-1.043v-1.963h.995v.208h-.76v.652h.708v.207h-.708v.68h.81zm1.541-1.755h-.57v1.755h-.23v-1.755h-.564v-.208h1.364z" class="cls-3" fill="#fff"/></g></svg>