<svg xmlns="http://www.w3.org/2000/svg" width="200" height="200"><defs><clipPath clipPathUnits="userSpaceOnUse" id="a"><path d="M0 768h726V0H0z"/></clipPath></defs><path d="M13.888 165.209h4.704v26.822h-4.704z" fill="#2276b2"/><g clip-path="url(#a)" transform="matrix(.26058 0 0 -.26058 5.41 199.214)" fill="#2276b2"><path d="M77.668 130.5h20.491l23.213-42.912c13.037-23.827 17.911-36.349 17.911-36.349s-1.146 12.674-1.146 36.349V130.5h18.196V27.567h-20.634l-23.497 42.76c-12.611 22.605-18.055 36.96-18.055 36.96s1.576-14.508 1.576-36.808V27.567H77.668zm123.516-15.728V84.377h33.528V68.65h-33.528V27.566h-18.199V130.5h56.601v-15.727zm99.012-70.559c16.334 0 26.222 13.438 26.222 35.126 0 21.686-9.888 35.276-26.366 35.276-16.19 0-26.223-13.59-26.223-35.276 0-21.688 10.32-35.126 26.367-35.126m-.144 88.118c28.227 0 45.708-21.073 45.708-52.992 0-31.615-17.765-52.842-45.564-52.842s-45.708 21.077-45.708 52.842c0 31.766 17.768 52.992 45.564 52.992m125.525-17.715h-24.502V27.567h-18.199v87.05h-24.502v15.882h67.203zm76.231-71.318v-15.73h-57.604V130.5h57.029v-15.73h-38.83V86.82h34.534V71.245h-34.533V43.298zm91.419 64.142c-8.167 5.037-14.327 6.718-24.07 6.718-17.054 0-30.81-13.285-30.81-35.123 0-21.689 13.041-34.974 31.811-34.974 8.168 0 17.05 2.75 23.213 7.636V32.453c-7.309-5.038-17.337-6.108-24.933-6.108-28.084 0-49.433 20.466-49.433 52.69 0 31.306 20.491 52.84 49.433 52.84 7.88 0 17.337-.917 24.79-5.65zm99.299 23.06V27.567h-18.198v43.221H634.64V27.567h-18.055V130.5h18.055V87.435h39.69V130.5zm-138.46 522.734c24.18-36.48 38.294-80.177 38.294-127.18 0-127.568-103.704-230.985-231.626-230.985-127.92 0-231.625 103.417-231.625 230.986 0 41.693 11.134 80.77 30.514 114.536-32.656-42.676-52.08-95.955-52.08-153.78 0-140.162 113.934-253.784 254.485-253.784 140.547 0 254.486 113.622 254.486 253.784 0 63.695-23.586 121.863-62.448 166.423"/><path d="M395.401 332.32c-108.076 0-195.686 87.37-195.686 195.147 0 107.78 87.61 195.15 195.686 195.15 37.346 0 72.242-10.445 101.933-28.549C460.327 724.023 413.176 742 361.798 742c-118.888 0-215.264-96.11-215.264-214.674 0-118.559 96.376-214.67 215.264-214.67 52.18 0 100.02 18.525 137.282 49.328-30.069-18.775-65.59-29.665-103.679-29.665"/><path d="M393.704 703.273c-92.785 0-168.827-71.263-176.229-161.89 15.655 72.176 80.02 126.264 157.08 126.264 88.772 0 160.74-71.768 160.74-160.298 0-75.751-52.708-139.188-123.533-155.935 89.201 9.02 158.813 84.139 158.813 175.475 0 97.415-79.187 176.384-176.87 176.384"/></g></svg>