<svg xmlns="http://www.w3.org/2000/svg" width="210mm" height="297mm" viewBox="0 0 210 297"><ellipse cx="122.944" cy="91.737" rx="36.883" ry="30.87" fill="gray"/><path d="M107.153 78.885c.68 4.243 1.393 8.478 2.252 12.688 1.31 5.426 2.502 11.01 4.874 16.1.383.822.846 1.605 1.268 2.407.467.635.873 1.32 1.4 1.906.472.527 2.156 1.83 1.582 1.416-1.513-1.09-3.191-2.032-4.404-3.448-.448-.522 1.295.482 1.971.61 1.816.342 2.709.123 4.547-.047 4.31-.733 7.227-2.38 8.787-6.74 1.21-3.38.973-5.437 1.089-9.024-.545-5.135-.434-5.727-1.694-10.828-.447-1.812-1.04-3.585-1.559-5.378l6.102 3.595c1.518 5.397 3.035 10.803 3.233 16.453-.11 3.701.124 5.91-1.09 9.423-1.126 3.257-3.341 5.646-6.562 6.834-.807.298-1.673.404-2.51.606-1.909.262-2.784.51-4.695.292-4.198-.477-6.1-2.986-10.014-5.886-.57-.422-1.036-.974-1.477-1.53-.488-.616-.864-1.313-1.296-1.969-.398-.814-.834-1.612-1.195-2.444-2.24-5.169-3.424-10.753-4.778-16.194-.916-4.28-1.625-8.605-2.674-12.854l6.843 4.012z" fill="purple"/></svg>