<?xml version="1.0" encoding="UTF-8" standalone="no"?>
<!-- Created with Inkscape (http://www.inkscape.org/) -->

<svg
   xmlns:dc="http://purl.org/dc/elements/1.1/"
   xmlns:cc="http://creativecommons.org/ns#"
   xmlns:rdf="http://www.w3.org/1999/02/22-rdf-syntax-ns#"
   xmlns:svg="http://www.w3.org/2000/svg"
   xmlns="http://www.w3.org/2000/svg"
   xmlns:sodipodi="http://sodipodi.sourceforge.net/DTD/sodipodi-0.dtd"
   xmlns:inkscape="http://www.inkscape.org/namespaces/inkscape"
   version="1.1"
   id="svg15179"
   xml:space="preserve"
   width="200"
   height="200"
   viewBox="0 0 200 200"
   sodipodi:docname="Hoved-logo.svg"
   inkscape:version="0.92.1 r15371"><metadata
     id="metadata15185"><rdf:RDF><cc:Work
         rdf:about=""><dc:format>image/svg+xml</dc:format><dc:type
           rdf:resource="http://purl.org/dc/dcmitype/StillImage" /><dc:title></dc:title></cc:Work></rdf:RDF></metadata><defs
     id="defs15183"><clipPath
       clipPathUnits="userSpaceOnUse"
       id="clipPath15197"><path
         d="M 0,768 H 726 V 0 H 0 Z"
         id="path15195"
         inkscape:connector-curvature="0" /></clipPath></defs><sodipodi:namedview
     pagecolor="#ffffff"
     bordercolor="#666666"
     borderopacity="1"
     objecttolerance="10"
     gridtolerance="10"
     guidetolerance="10"
     inkscape:pageopacity="0"
     inkscape:pageshadow="2"
     inkscape:window-width="1600"
     inkscape:window-height="961"
     id="namedview15181"
     showgrid="false"
     inkscape:zoom="1.4921875"
     inkscape:cx="125.5825"
     inkscape:cy="199.48888"
     inkscape:window-x="-8"
     inkscape:window-y="-8"
     inkscape:window-maximized="1"
     inkscape:current-layer="g15187" /><g
     id="g15187"
     inkscape:groupmode="layer"
     inkscape:label="Hoved Logo"
     transform="matrix(1.3333333,0,0,-1.3333333,0,200)"><g
       id="g16430"
       transform="matrix(1.7362641,0,0,1.7362641,-46.06659,-40.004575)"><path
         inkscape:connector-curvature="0"
         id="path15189"
         style="fill:#2276b2;fill-opacity:1;fill-rule:nonzero;stroke:none;stroke-width:0.11255964"
         d="m 32.531,38.069205 h 2.032264 V 26.483104 H 32.531 Z" /><g
         transform="matrix(0.11255964,0,0,0.11255964,28.869322,23.38006)"
         id="g15191"><g
           clip-path="url(#clipPath15197)"
           id="g15193"><g
             transform="translate(77.668,130.5)"
             id="g15199"><path
               inkscape:connector-curvature="0"
               id="path15201"
               style="fill:#2276b2;fill-opacity:1;fill-rule:nonzero;stroke:none"
               d="m 0,0 h 20.491 l 23.213,-42.912 c 13.037,-23.827 17.911,-36.349 17.911,-36.349 0,0 -1.146,12.674 -1.146,36.349 V 0 H 78.665 V -102.933 H 58.031 l -23.497,42.76 c -12.611,22.605 -18.055,36.96 -18.055,36.96 0,0 1.576,-14.508 1.576,-36.808 v -42.912 H 0 Z" /></g><g
             transform="translate(201.1841,114.7715)"
             id="g15203"><path
               inkscape:connector-curvature="0"
               id="path15205"
               style="fill:#2276b2;fill-opacity:1;fill-rule:nonzero;stroke:none"
               d="M 0,0 V -30.394 H 33.528 V -46.123 H 0 V -87.205 H -18.199 V 15.727 H 38.402 V 0 Z" /></g><g
             transform="translate(300.1963,44.2129)"
             id="g15207"><path
               inkscape:connector-curvature="0"
               id="path15209"
               style="fill:#2276b2;fill-opacity:1;fill-rule:nonzero;stroke:none"
               d="m 0,0 c 16.334,0 26.222,13.438 26.222,35.126 0,21.686 -9.888,35.276 -26.366,35.276 -16.191,0 -26.223,-13.59 -26.223,-35.276 C -26.367,13.438 -16.048,0 0,0 m -0.144,88.118 c 28.227,0 45.708,-21.073 45.708,-52.992 0,-31.615 -17.765,-52.842 -45.564,-52.842 -27.799,0 -45.708,21.077 -45.708,52.842 0,31.766 17.768,52.992 45.564,52.992" /></g><g
             transform="translate(425.5771,114.6162)"
             id="g15211"><path
               inkscape:connector-curvature="0"
               id="path15213"
               style="fill:#2276b2;fill-opacity:1;fill-rule:nonzero;stroke:none"
               d="M 0,0 H -24.502 V -87.049 H -42.701 V 0 H -67.203 V 15.883 H 0 Z" /></g><g
             transform="translate(501.8076,43.2979)"
             id="g15215"><path
               inkscape:connector-curvature="0"
               id="path15217"
               style="fill:#2276b2;fill-opacity:1;fill-rule:nonzero;stroke:none"
               d="M 0,0 V -15.729 H -57.604 V 87.202 H -0.575 V 71.473 H -39.404 V 43.523 H -4.871 V 27.946 H -39.404 V 0 Z" /></g><g
             transform="translate(593.2275,107.4395)"
             id="g15219"><path
               inkscape:connector-curvature="0"
               id="path15221"
               style="fill:#2276b2;fill-opacity:1;fill-rule:nonzero;stroke:none"
               d="m 0,0 c -8.167,5.038 -14.327,6.719 -24.071,6.719 -17.053,0 -30.809,-13.285 -30.809,-35.123 0,-21.689 13.041,-34.974 31.811,-34.974 8.168,0 17.049,2.75 23.213,7.636 v -19.244 c -7.309,-5.038 -17.337,-6.108 -24.933,-6.108 -28.084,0 -49.433,20.466 -49.433,52.69 0,31.306 20.491,52.839 49.433,52.839 7.88,0 17.337,-0.916 24.789,-5.65 z" /></g><g
             transform="translate(692.5264,130.5)"
             id="g15223"><path
               inkscape:connector-curvature="0"
               id="path15225"
               style="fill:#2276b2;fill-opacity:1;fill-rule:nonzero;stroke:none"
               d="m 0,0 v -102.933 h -18.198 v 43.221 h -39.689 v -43.221 H -75.942 V 0 h 18.055 v -43.065 h 39.689 V 0 Z" /></g><g
             transform="translate(554.0664,653.2339)"
             id="g15227"><path
               inkscape:connector-curvature="0"
               id="path15229"
               style="fill:#2276b2;fill-opacity:1;fill-rule:nonzero;stroke:none"
               d="m 0,0 c 24.18,-36.48 38.294,-80.177 38.294,-127.179 0,-127.569 -103.704,-230.986 -231.626,-230.986 -127.921,0 -231.625,103.417 -231.625,230.986 0,41.693 11.134,80.771 30.514,114.536 -32.656,-42.676 -52.081,-95.955 -52.081,-153.78 0,-140.162 113.935,-253.784 254.486,-253.784 140.547,0 254.486,113.622 254.486,253.784 C 62.448,-102.728 38.862,-44.56 0,0" /></g><g
             transform="translate(395.4014,332.3193)"
             id="g15231"><path
               inkscape:connector-curvature="0"
               id="path15233"
               style="fill:#2276b2;fill-opacity:1;fill-rule:nonzero;stroke:none"
               d="m 0,0 c -108.076,0 -195.686,87.37 -195.686,195.148 0,107.779 87.61,195.149 195.686,195.149 37.346,0 72.242,-10.444 101.933,-28.548 -37.007,29.955 -84.158,47.932 -135.536,47.932 -118.888,0 -215.264,-96.111 -215.264,-214.674 0,-118.559 96.376,-214.67 215.264,-214.67 52.18,0 100.02,18.525 137.282,49.328 C 73.61,10.89 38.088,0 0,0" /></g><g
             transform="translate(393.7041,703.2725)"
             id="g15235"><path
               inkscape:connector-curvature="0"
               id="path15237"
               style="fill:#2276b2;fill-opacity:1;fill-rule:nonzero;stroke:none"
               d="m 0,0 c -92.785,0 -168.827,-71.263 -176.229,-161.889 15.655,72.176 80.019,126.264 157.079,126.264 88.773,0 160.74,-71.768 160.74,-160.298 0,-75.752 -52.707,-139.189 -123.532,-155.936 89.201,9.02 158.813,84.139 158.813,175.475 C 176.871,-78.969 97.684,0 0,0" /></g></g></g></g></g></svg>