<?xml version="1.0" encoding="UTF-8" standalone="no"?>
<!-- Created with Inkscape (http://www.inkscape.org/) -->

<svg
   xmlns:dc="http://purl.org/dc/elements/1.1/"
   xmlns:cc="http://creativecommons.org/ns#"
   xmlns:rdf="http://www.w3.org/1999/02/22-rdf-syntax-ns#"
   xmlns:svg="http://www.w3.org/2000/svg"
   xmlns="http://www.w3.org/2000/svg"
   xmlns:sodipodi="http://sodipodi.sourceforge.net/DTD/sodipodi-0.dtd"
   xmlns:inkscape="http://www.inkscape.org/namespaces/inkscape"
   width="210mm"
   height="297mm"
   viewBox="0 0 210 297"
   version="1.1"
   id="svg4740"
   sodipodi:docname="tmp.svg"
   inkscape:version="0.92.3 (2405546, 2018-03-11)">
  <defs
     id="defs4734" />
  <sodipodi:namedview
     id="base"
     pagecolor="#ffffff"
     bordercolor="#666666"
     borderopacity="1.0"
     inkscape:pageopacity="0.0"
     inkscape:pageshadow="2"
     inkscape:zoom="0.49497475"
     inkscape:cx="415.23908"
     inkscape:cy="626.0633"
     inkscape:document-units="mm"
     inkscape:current-layer="layer1"
     showgrid="false"
     inkscape:window-width="985"
     inkscape:window-height="622"
     inkscape:window-x="921"
     inkscape:window-y="247"
     inkscape:window-maximized="0" />
  <metadata
     id="metadata4737">
    <rdf:RDF>
      <cc:Work
         rdf:about="">
        <dc:format>image/svg+xml</dc:format>
        <dc:type
           rdf:resource="http://purl.org/dc/dcmitype/StillImage" />
      </cc:Work>
    </rdf:RDF>
  </metadata>
  <g
     inkscape:label="Layer 1"
     inkscape:groupmode="layer"
     id="layer1">
    <ellipse
       style="opacity:1;fill:#808080;fill-opacity:1;stroke:none;stroke-width:1.57999992;stroke-linecap:round;stroke-miterlimit:4;stroke-dasharray:none;stroke-opacity:1"
       id="path5285"
       cx="122.94398"
       cy="91.737"
       rx="36.883194"
       ry="30.869631"
       inkscape:export-xdpi="96"
       inkscape:export-ydpi="96" />
    <path
       style="opacity:1;fill:#800080;fill-opacity:1;stroke:none;stroke-width:1.57999992;stroke-linecap:round;stroke-miterlimit:4;stroke-dasharray:none;stroke-opacity:1"
       id="path5289"
       d="m 107.15265,78.884999 c 0.67948,4.242608 1.3933,8.47752 2.25216,12.688218 1.30976,5.425937 2.50239,11.009413 4.87437,16.099863 0.38299,0.82193 0.84543,1.60444 1.26814,2.40666 0.46634,0.63548 0.87257,1.3198 1.39901,1.90647 0.4728,0.52689 2.15706,1.82989 1.58259,1.41623 -1.51306,-1.08952 -3.19119,-2.03223 -4.40433,-3.4481 -0.4476,-0.5224 1.29584,0.48169 1.97187,0.60914 1.81515,0.34221 2.70823,0.12379 4.54701,-0.0461 4.30903,-0.73356 7.22638,-2.37989 8.78652,-6.74065 1.20921,-3.37993 0.97271,-5.436872 1.08881,-9.023319 -0.54433,-5.135872 -0.43366,-5.727446 -1.69363,-10.828096 -0.44764,-1.812158 -1.03934,-3.58567 -1.55899,-5.3785 0,0 6.10162,3.595264 6.10162,3.595264 v 0 c 1.51811,5.397256 3.03504,10.803125 3.23283,16.453084 -0.11055,3.701037 0.12465,5.910707 -1.08927,9.422337 -1.12609,3.2575 -3.34184,5.64676 -6.56208,6.83424 -0.80759,0.29779 -1.67342,0.40395 -2.51013,0.60593 -1.90906,0.26237 -2.78452,0.50978 -4.69563,0.29253 -4.19774,-0.47717 -6.1001,-2.98592 -10.01313,-5.88593 -0.56961,-0.42214 -1.03682,-0.97468 -1.47717,-1.53035 -0.48797,-0.61576 -0.86388,-1.31256 -1.29582,-1.96885 -0.39837,-0.81455 -0.8346,-1.61163 -1.19509,-2.44364 -2.23977,-5.169375 -3.42432,-10.75299 -4.77808,-16.194031 -0.91643,-4.279805 -1.62477,-8.604965 -2.67452,-12.854103 0,0 6.84294,4.011663 6.84294,4.011663 z"
       inkscape:connector-curvature="0"
       inkscape:export-xdpi="96"
       inkscape:export-ydpi="96" />
  </g>
</svg>
